<svg width="155" height="143" viewBox="0 0 155 143" fill="none" xmlns="http://www.w3.org/2000/svg">
<path d="M85.6623 127.658C116.77 119.594 135.422 87.9515 127.321 56.9832C119.22 26.0149 87.4344 7.44769 56.3263 15.5122C25.2181 23.5767 6.56709 55.219 14.668 86.1874C22.7689 117.156 54.5541 135.723 85.6623 127.658Z" fill="#DAEBF7"/>
<path fill-rule="evenodd" clip-rule="evenodd" d="M51.9289 26.4034C56.0079 24.4893 59.6479 23.6484 60.0591 24.5169C60.3092 25.048 59.32 26.0825 57.5917 27.2443C56.4414 29.0478 58.253 32.0076 58.253 32.0076L53.4349 34.4307C52.0456 35.1333 52.8014 34.9673 51.5454 32.7932C50.7007 31.3326 50.0228 31.1501 48.8557 31.3216C46.9163 31.8803 45.5325 31.9633 45.288 31.4488C44.8768 30.5747 47.8499 28.3176 51.9289 26.4034Z" fill="#858584"/>
<path fill-rule="evenodd" clip-rule="evenodd" d="M54.7243 32.3616C76.3307 23.1836 99.9601 28.146 101.938 32.7655C103.922 37.3849 88.012 48.5766 66.4055 57.7546C44.7991 66.9326 25.6822 70.6281 23.6983 66.0087C21.7199 61.3893 33.1178 41.5396 54.7243 32.3616Z" fill="#999A9A"/>
<path fill-rule="evenodd" clip-rule="evenodd" d="M101.738 32.4003C101.822 32.522 101.888 32.6437 101.938 32.7599C103.922 37.3793 88.0118 48.571 66.4053 57.749C45.6435 66.5674 27.1825 70.3238 24.0093 66.5066C27.5881 60.7254 41.7201 51.3925 59.7478 43.3486C78.5868 34.9562 95.6363 30.6576 101.738 32.4003Z" fill="#858584"/>
<path fill-rule="evenodd" clip-rule="evenodd" d="M52.8626 35.4707C50.0506 36.3282 47.4665 37.7666 45.0157 39.3543C42.276 41.1966 39.942 43.0941 37.5302 45.3402C36.6855 46.1424 35.8741 46.9501 35.0794 47.7965C32.801 50.2307 30.128 53.5888 28.8442 56.6703C28.7942 56.7864 27.5661 59.8568 28.3719 59.2372C29.0221 58.6785 30.2669 56.3715 30.7837 55.5859C33.1455 52.1283 35.5129 49.2681 38.4527 46.2696C38.8973 45.8215 39.3474 45.39 39.8086 44.953C42.3705 42.552 45.2492 40.245 48.2167 38.3419C49.5893 37.4623 51.0565 36.555 52.5236 35.8303C52.5347 35.8192 53.1182 35.5316 52.8626 35.4707ZM51.3954 36.0903L51.3899 36.0958C51.3899 36.0903 51.3899 36.0903 51.3954 36.0903Z" fill="#D8D8D8"/>
<path fill-rule="evenodd" clip-rule="evenodd" d="M88.4178 37.3018C83.9331 37.2796 79.6485 37.9822 75.3083 39.0776C69.2232 40.7484 63.3158 42.8949 57.5141 45.3623C52.3681 47.6194 46.3941 50.6677 41.8927 53.987C40.6535 54.9496 35.9354 57.8209 38.2305 59.1652C41.1925 60.6368 44.9603 58.8111 47.8556 57.8485C55.2078 55.2539 60.6595 51.8903 67.5393 48.4492C72.0574 46.2529 76.6698 44.1009 81.2546 42.0318C83.6664 40.9254 85.6392 39.7858 87.9343 38.5521C88.3956 38.2699 88.7846 37.8384 88.4178 37.3018ZM85.9949 37.9048C85.9893 37.9048 85.9893 37.9048 85.9837 37.9103L85.9949 37.9048Z" fill="#717170"/>
<path fill-rule="evenodd" clip-rule="evenodd" d="M88.8621 29.1031C76.464 27.6591 65.6718 29.4239 59.3922 32.1513C53.1125 34.8787 65.9164 30.7074 79.2815 31.8305C82.8492 32.1292 83.6439 33.1416 85.5667 32.6492C91.5796 31.1168 95.8698 30.9508 95.8698 30.9508C95.8698 30.9508 90.8738 29.3465 88.8621 29.1031Z" fill="#B7B7B8"/>
<path fill-rule="evenodd" clip-rule="evenodd" d="M102 78.8159C110.096 72.9074 116.648 68.7859 123.495 65.2674C130.325 61.76 137.41 60.1833 146.602 56.7367L148.419 60.0837C139.4 63.4639 132.475 66.4237 125.857 69.826C119.255 73.2173 112.919 77.206 105.045 82.954L102 78.8159Z" fill="#999A9A"/>
<path fill-rule="evenodd" clip-rule="evenodd" d="M67.4501 74.5284C90.2903 69.0625 111.536 68.4318 112.714 73.3223C113.892 78.2073 94.5638 86.7601 71.7236 92.226C48.8834 97.6919 29.4109 98.1621 28.2328 93.2716C27.0491 88.3811 44.6099 79.9942 67.4501 74.5284Z" fill="#999A9A"/>
<path fill-rule="evenodd" clip-rule="evenodd" d="M107.446 77.0455C102.1 73.5436 94.564 74.3292 88.2398 74.462C80.9321 74.7773 74.319 75.7233 67.1668 77.2115C64.466 77.8035 61.8208 78.4452 59.1589 79.1921C51.74 81.3552 43.3041 84.4311 37.1245 89.1169C36.3798 89.7365 31.4117 93.3823 33.9902 94.3504C36.7133 95.1802 40.5644 93.0227 43.2819 91.9937C51.8622 88.8016 59.8702 85.6426 68.7229 83.0923C69.9455 82.7548 71.168 82.4339 72.3962 82.1297C89.4624 78.1133 91.9409 79.618 107.196 79.5185C107.629 79.5019 107.701 77.7315 107.446 77.0455Z" fill="#858584"/>
<path fill-rule="evenodd" clip-rule="evenodd" d="M104.595 84.1987C98.5316 88.2815 87.9729 91.4957 72.2071 95.2687C69.623 95.8883 29.0441 98.7872 35.6739 93.3656C40.9644 89.0394 53.0458 84.8293 68.7838 81.0619C85.1943 77.134 100.727 75.8892 107.479 77.6098C109.874 78.2183 106.162 83.142 104.595 84.1987Z" fill="#8CC7F0"/>
<path fill-rule="evenodd" clip-rule="evenodd" d="M28.1719 92.818C28.1719 92.8235 28.1719 92.8346 28.1719 92.8456C28.1774 92.8346 28.1719 92.829 28.1719 92.818ZM28.6053 94.0461C31.5173 100.497 43.9322 120.037 50.4675 122.532C60.3315 126.294 100.766 116.717 108.346 108.939C111.908 105.282 113.325 79.192 112.614 73.5934C112.614 73.5934 112.608 73.5934 112.608 73.5879C112.542 74.8492 105.423 74.4564 107.24 76.4978C108.063 77.4217 107.257 79.1589 106.173 79.7895C98.7875 84.0715 85.8614 88.8403 71.7238 92.2205C49.9729 97.4263 31.6229 98.0847 28.6053 94.0461Z" fill="#999A9A"/>
<path fill-rule="evenodd" clip-rule="evenodd" d="M126.212 61.4778C129.069 60.1445 132.036 58.85 135.182 57.5388C138.844 56.0175 144.929 53.8212 149.247 52.1836C154.021 50.3746 156.727 58.7393 152.731 60.2552C148.424 61.8872 142.317 64.089 138.566 65.6491C135.47 66.9381 132.531 68.2271 129.663 69.5715C128.485 70.1247 126.996 70.0085 126.618 69.5327C126.529 69.4166 127.357 69.1621 127.29 69.0127C126.801 67.9339 126.123 65.2563 125.24 64.5095C125.012 64.3158 124.562 64.9686 124.439 64.7584C123.761 63.6298 124.034 62.4902 126.212 61.4778Z" fill="#BD7E53"/>
<path fill-rule="evenodd" clip-rule="evenodd" d="M69.1842 48.466C65.2386 48.8643 60.9706 53.8378 62.0154 55.9235C63.0601 58.0091 67.3281 56.8031 67.4114 58.0091C67.4892 59.2096 64.5939 62.9771 67.6504 63.298C70.7124 63.6188 72.8853 63.298 72.2407 61.2953C71.596 59.2926 70.1456 57.2844 72.1573 57.124C74.169 56.9635 76.6642 56.6427 76.6642 55.2817C76.6698 53.9153 75.2249 48.3056 69.1842 48.466Z" fill="#E8BA94"/>
<path fill-rule="evenodd" clip-rule="evenodd" d="M57.5862 62.6506C53.8795 62.8111 54.6075 65.6159 52.029 70.2685C49.4504 74.9156 48.2445 76.3595 52.6736 74.8382C57.1027 73.3168 64.0326 64.6588 57.5862 62.6506Z" fill="#C63A2F"/>
<path fill-rule="evenodd" clip-rule="evenodd" d="M35.4463 67.9007C35.4463 69.7375 36.8189 71.7899 38.7084 71.7899C40.5978 71.7899 42.5318 70.1413 42.5318 68.3046C42.5318 64.2605 35.4463 64.0724 35.4463 67.9007Z" fill="#E5AB16"/>
<path fill-rule="evenodd" clip-rule="evenodd" d="M83.2773 72.2324C83.2773 74.0691 84.65 76.1216 86.5394 76.1216C88.4289 76.1216 90.3628 74.473 90.3628 72.6363C90.3628 68.5867 83.2773 68.3986 83.2773 72.2324Z" fill="#D8D8D8"/>
<path fill-rule="evenodd" clip-rule="evenodd" d="M73.4076 62.7778C79.904 57.2456 87.1339 49.5392 90.6461 51.7963C94.5139 54.2858 91.6797 63.4362 93.2191 64.5703C93.936 65.1014 96.7146 59.4253 99.7044 56.4545C104.111 52.0785 96.709 69.162 94.0971 70.6281C90.0403 72.9129 86.9339 62.5455 86.9339 62.5455C82.5381 67.4913 79.6039 70.877 76.992 71.5464C71.4848 72.9572 69.5397 66.0695 73.4076 62.7778Z" fill="#BD7E53"/>
<path fill-rule="evenodd" clip-rule="evenodd" d="M107.09 73.5436C111.174 70.8328 114.542 67.0155 116.226 63.3089C118.399 58.5346 114.664 56.3162 111.708 60.6535C109.735 63.5413 108.874 68.1386 106.44 72.1826C105.456 73.8257 104.722 75.1092 107.09 73.5436Z" fill="#8CC7F0"/>
<path fill-rule="evenodd" clip-rule="evenodd" d="M102.488 72.9793C104.817 69.6157 105.689 65.9423 105.356 63.0876C104.939 59.5359 100.838 59.5249 100.643 63.0932C100.504 65.5827 101.488 69.1399 101.294 72.6695C101.205 74.1909 101.494 74.4121 102.488 72.9793Z" fill="#8CC7F0"/>
<path fill-rule="evenodd" clip-rule="evenodd" d="M33.9512 90.323C30.6613 89.7421 27.4215 88.3701 25.4042 86.55C22.7423 84.149 24.8096 81.9085 27.8438 83.8171C29.7833 85.0397 31.4894 87.3577 33.9346 89.1336C35.385 90.1847 36.941 90.8541 33.9512 90.323Z" fill="#8CC7F0"/>
<path fill-rule="evenodd" clip-rule="evenodd" d="M64.4769 70.6061C60.8147 70.6061 57.2637 74.3072 57.2637 77.9529C57.2637 85.604 71.3568 85.9415 71.3568 77.2061C71.3568 73.5603 68.1392 70.6061 64.4769 70.6061Z" fill="#C63A2F"/>
<path fill-rule="evenodd" clip-rule="evenodd" d="M78.7649 74.3569C65.2997 75.4523 79.4373 92.9507 84.0664 80.6636C85.1557 77.7813 83.2606 74.1024 78.7649 74.3569Z" fill="#E5AB16"/>
<path fill-rule="evenodd" clip-rule="evenodd" d="M60.6094 74.6555C60.6094 77.6429 67.6948 77.2114 67.6948 73.8035C67.6948 72.7469 65.622 72.1272 63.7492 72.3651C62.0932 72.5754 60.6094 73.5103 60.6094 74.6555Z" fill="#CE6147"/>
<path fill-rule="evenodd" clip-rule="evenodd" d="M58.5644 77.5601C60.1371 75.0153 65.9444 79.087 64.1494 81.9859C63.5937 82.8821 61.5042 82.3289 60.0315 81.1506C58.7311 80.105 57.9642 78.5338 58.5644 77.5601Z" fill="#CE6147"/>
<path fill-rule="evenodd" clip-rule="evenodd" d="M69.873 75.8173C67.4334 74.0802 63.66 80.0605 66.4386 82.0466C67.3 82.6607 69.0172 81.344 69.9119 79.6954C70.7066 78.2294 70.8066 76.4812 69.873 75.8173Z" fill="#CE6147"/>
<path fill-rule="evenodd" clip-rule="evenodd" d="M64.0657 73.6763C64.2936 73.6265 64.5881 74.0857 64.7326 74.7053C64.8715 75.3249 64.8048 75.8671 64.577 75.9169C64.3491 75.9667 64.0546 75.5075 63.9101 74.8879C63.7712 74.2738 63.8379 73.7261 64.0657 73.6763Z" fill="#C10016"/>
<path fill-rule="evenodd" clip-rule="evenodd" d="M62.4267 74.2185C62.6157 74.1079 63.0269 74.4398 63.3325 74.9654C63.6438 75.4909 63.7382 76.0054 63.5493 76.1161C63.3603 76.2267 62.9491 75.8948 62.6434 75.3692C62.3322 74.8492 62.2322 74.3292 62.4267 74.2185Z" fill="#C10016"/>
<path fill-rule="evenodd" clip-rule="evenodd" d="M65.6552 73.5768C65.8775 73.6045 65.9942 74.1135 65.922 74.7165C65.8497 75.3195 65.6108 75.7897 65.394 75.7621C65.1718 75.7344 65.0551 75.2255 65.1273 74.6224C65.1995 74.0194 65.433 73.5492 65.6552 73.5768Z" fill="#C10016"/>
<path fill-rule="evenodd" clip-rule="evenodd" d="M61.1818 80.0938C61.0095 79.9389 61.204 79.4299 61.6263 78.9541C62.0487 78.4783 62.5266 78.2128 62.7044 78.3622C62.8767 78.5115 62.6822 79.026 62.2599 79.5018C61.8375 79.9776 61.354 80.2431 61.1818 80.0938Z" fill="#C10016"/>
<path fill-rule="evenodd" clip-rule="evenodd" d="M62.5876 81.0951C62.382 81.0066 62.4154 80.481 62.6599 79.9278C62.9044 79.3691 63.2656 78.9873 63.4712 79.0759C63.6768 79.1644 63.6435 79.6899 63.399 80.2432C63.1545 80.8019 62.7877 81.1836 62.5876 81.0951Z" fill="#C10016"/>
<path fill-rule="evenodd" clip-rule="evenodd" d="M60.1648 78.8712C60.0592 78.6775 60.3982 78.2792 60.9317 77.986C61.4651 77.6873 61.9875 77.6043 62.0931 77.7979C62.1987 77.9915 61.8597 78.3899 61.3262 78.6831C60.7927 78.9818 60.2703 79.0648 60.1648 78.8712Z" fill="#C10016"/>
<path fill-rule="evenodd" clip-rule="evenodd" d="M68.417 79.1368C68.5559 78.9487 68.2503 78.495 67.739 78.1133C67.2278 77.7371 66.6998 77.5767 66.5609 77.7648C66.4219 77.9529 66.7276 78.4065 67.2389 78.7882C67.7501 79.1644 68.2781 79.3249 68.417 79.1368Z" fill="#C10016"/>
<path fill-rule="evenodd" clip-rule="evenodd" d="M67.2557 80.4147C67.4391 80.2874 67.2946 79.7785 66.9389 79.2861C66.5833 78.7937 66.1498 78.495 65.9664 78.6278C65.7886 78.755 65.9275 79.264 66.2832 79.7563C66.6444 80.2432 67.0779 80.5419 67.2557 80.4147Z" fill="#C10016"/>
<path fill-rule="evenodd" clip-rule="evenodd" d="M69.1509 77.7314C69.2176 77.5212 68.7952 77.2058 68.2117 77.0288C67.6282 76.8518 67.1003 76.8794 67.0392 77.0897C66.9725 77.2999 67.3948 77.6152 67.9783 77.7922C68.5618 77.9693 69.0842 77.9416 69.1509 77.7314Z" fill="#C10016"/>
<path fill-rule="evenodd" clip-rule="evenodd" d="M74.7469 70.9766C76.0028 71.0541 77.2365 70.4455 78.2813 69.8259C78.3035 69.8204 78.5314 69.6765 78.5647 69.6489C79.7818 68.8633 80.8265 68.0003 81.8991 67.0432C82.2325 66.7334 82.5548 66.4236 82.8771 66.1082C83.783 65.201 85.2945 63.6464 85.9892 62.6063C86.2115 62.2357 86.5171 61.8816 86.167 61.522C85.6057 61.0407 84.95 61.6105 84.422 61.9812C83.0105 63.0544 81.8435 64.526 80.6431 65.8316C80.4097 66.0861 80.1763 66.3295 79.9374 66.5785C79.1538 67.3696 78.3813 68.0998 77.5366 68.8301C77.2588 69.0625 76.9754 69.2893 76.6808 69.505C76.1473 69.8923 75.486 70.3847 74.8914 70.6723C74.7803 70.7277 74.658 70.8328 74.7469 70.9766ZM75.4249 70.8107C75.4304 70.8107 75.4249 70.8107 75.4249 70.8107V70.8107Z" fill="#A3694C"/>
<path fill-rule="evenodd" clip-rule="evenodd" d="M71.2683 50.0979C71.5184 50.1975 71.7184 50.3524 71.9129 50.5295C72.1519 50.7673 72.3408 51.0108 72.5353 51.2874C72.6576 51.4755 72.7743 51.6636 72.8854 51.8572C73.1244 52.2887 73.3022 52.676 73.4189 53.1573C73.4801 53.4173 73.519 53.6607 73.4912 53.9263C73.4745 54.048 73.4523 54.1586 73.38 54.2582C73.3745 54.2637 73.3522 54.2914 73.3522 54.2914C73.2744 54.3744 73.1966 54.4186 73.0966 54.4684C72.7965 54.6067 72.4798 54.6731 72.1574 54.7284C71.9296 54.7616 71.7406 54.8004 71.5239 54.8833C71.0793 55.0659 70.6514 55.2042 70.807 55.7519C71.0238 56.3273 71.5461 56.2277 72.1574 56.3383C72.2019 56.3494 72.263 56.3549 72.3075 56.3604C72.8799 56.4213 73.3245 56.4047 73.8635 56.1945C74.3859 55.9621 74.7138 55.6744 74.9916 55.171C75.2139 54.7063 75.2639 54.3246 75.2306 53.8156C75.2028 53.5501 75.1528 53.3232 75.0805 53.0688C75.025 52.8917 74.9638 52.7313 74.8916 52.5598C74.4804 51.6968 74.0524 51.1103 73.3189 50.5129C73.3022 50.4963 73.18 50.4022 73.1522 50.3856C72.8632 50.1809 72.6131 50.0426 72.2741 49.9486C71.9796 49.8545 71.7573 49.8158 71.4517 49.8435C71.3127 49.8656 71.2405 49.9486 71.2683 50.0979Z" fill="#DE995C"/>
<path fill-rule="evenodd" clip-rule="evenodd" d="M110.752 69.3944C111.619 68.7693 112.419 68.122 113.159 67.3475C113.92 66.5177 114.603 65.5385 115.076 64.515C115.481 63.6298 115.843 62.291 115.859 61.3229C115.859 61.3008 115.865 61.0629 115.865 61.0629C115.782 61.1016 115.854 60.8139 115.859 60.7807C115.876 60.6811 115.893 60.5871 115.887 60.4875C115.865 60.1003 115.737 60.139 115.476 60.222C115.404 60.2441 115.331 60.2441 115.259 60.2496C115.165 60.2496 115.109 60.2607 115.02 60.2994C114.842 60.399 114.731 60.5318 114.642 60.7143C114.62 60.7254 114.231 61.5221 114.198 61.594C113.631 62.8 113.425 63.8235 112.931 65.0018C112.575 65.8095 112.092 66.6504 111.619 67.4028C111.28 67.945 111.008 68.5037 110.691 69.057C110.636 69.1676 110.58 69.3391 110.752 69.3944ZM111.214 68.8799C111.214 68.8799 111.219 68.8799 111.214 68.8799V68.8799Z" fill="white"/>
<path fill-rule="evenodd" clip-rule="evenodd" d="M44.4543 81.3717C24.5372 68.0335 10.7998 61.3671 4.78131 59.8347C0.624505 58.778 -1.23161 61.0075 1.43586 63.5966C7.72664 69.7042 42.9594 83.7948 42.9594 83.7948C42.9594 83.7948 43.0372 92.2481 55.4632 93.1886C67.8891 94.1346 57.9028 77.6928 44.4543 81.3717Z" fill="#BD7E53"/>
<path fill-rule="evenodd" clip-rule="evenodd" d="M41.2035 81.7258C38.586 80.1934 35.6574 78.7605 32.9399 77.4051C28.7831 75.3416 24.6207 73.2781 20.4695 71.2035C19.5692 70.7554 18.6745 70.2962 17.7742 69.8426C14.9178 68.4042 12.0447 66.9713 9.17163 65.5772C8.22691 65.107 7.28218 64.6367 6.33189 64.1831C5.96512 64.0116 5.59834 63.8345 5.23712 63.6575C4.92036 63.486 3.58107 62.6672 3.30321 62.5677C3.24763 62.5179 3.19762 62.4681 3.13093 62.4294C2.69191 62.2634 2.95866 62.6009 2.96977 62.6285C2.97533 62.6728 2.96977 62.6949 2.98644 62.7447C2.98644 62.7502 2.99756 62.7834 2.99756 62.7834C2.98644 63.5524 4.10344 64.2495 4.63138 64.6312C5.67058 65.4223 6.84316 66.1138 7.96572 66.7777C8.1102 66.8607 8.25469 66.9437 8.39918 67.0267C12.0725 69.1787 15.8848 70.9379 19.7359 72.7415C20.8529 73.2836 22.0033 73.7981 23.1314 74.3237C27.4049 76.3153 31.6895 78.2737 36.0352 80.0993C37.6079 80.7577 39.1528 81.3386 40.7811 81.8254C40.8589 81.8531 41.2702 81.9637 41.2035 81.7258ZM39.992 81.1947H39.9864H39.992Z" fill="#A3694C"/>
<path fill-rule="evenodd" clip-rule="evenodd" d="M46.5881 83.4298C47.3828 83.2749 48.183 83.3303 48.9777 83.4243C49.2778 83.4741 49.5723 83.5349 49.8724 83.6013C50.5949 83.7673 51.2228 83.9665 51.9119 84.2431C52.5677 84.5252 53.129 84.8184 53.7403 85.1835C54.8628 85.853 55.7297 86.5168 56.7912 87.2305C57.1635 87.4739 57.9249 88.2097 58.1416 87.6675C58.3861 86.893 57.7192 86.1738 57.2691 85.6095C56.1243 84.2265 54.5349 83.463 52.8567 82.9098C52.8066 82.8932 52.3732 82.766 52.3676 82.7604C51.1673 82.4396 50.2337 82.2791 49 82.3621C48.9166 82.3676 48.8332 82.3732 48.7499 82.3787C47.9774 82.4451 47.2772 82.6553 46.6492 83.109C46.5381 83.1975 46.4714 83.3137 46.5881 83.4298Z" fill="#DE995C"/>
<path fill-rule="evenodd" clip-rule="evenodd" d="M133.903 65.6989C134.454 65.4942 135.004 65.2895 135.554 65.0793C137.632 64.2882 139.716 63.5192 141.806 62.7668C142.523 62.4902 143.262 62.2413 143.99 61.9702C145.824 61.2897 147.624 60.565 149.386 59.7241C149.892 59.4807 150.397 59.2483 150.881 58.9606C151.186 58.7781 151.498 58.5955 151.787 58.3908C152.003 58.2691 152.287 58.1087 152.459 57.9316C152.715 57.7601 152.737 57.4669 152.548 57.3176C152.442 57.2567 152.348 57.2235 152.226 57.2069C151.937 57.041 151.648 57.0797 151.325 57.1239C150.531 57.1682 149.375 57.5223 148.619 57.7436C148.619 57.7436 148.613 57.7436 148.608 57.7436C145.924 58.4627 143.467 59.619 140.939 60.7365C140.511 60.9191 140.083 61.1182 139.655 61.3063C137.46 62.2855 135.354 63.2426 133.281 64.4486C133.153 64.515 133.025 64.5925 132.903 64.6644C125.679 68.88 130.336 67.1373 133.903 65.6989Z" fill="#A3694C"/>
<path fill-rule="evenodd" clip-rule="evenodd" d="M46.4052 64.7696C47.3388 65.522 48.9448 65.6658 49.7173 64.7143C50.4897 63.7572 50.4397 62.1086 49.5005 61.3562C47.4444 59.702 44.449 63.204 46.4052 64.7696Z" fill="#C63A2F"/>
<path fill-rule="evenodd" clip-rule="evenodd" d="M96.9702 51.9457C97.9038 52.6981 99.5099 52.8419 100.282 51.8848C101.055 50.9333 101.005 49.2791 100.071 48.5268C98.0094 46.8782 95.0196 50.3801 96.9702 51.9457Z" fill="#8CC7F0"/>
<path fill-rule="evenodd" clip-rule="evenodd" d="M62.032 118.88C64.9496 119.932 73.8467 118.255 76.8532 117.647C79.5373 117.066 82.1603 116.424 84.8055 115.699C89.4958 114.449 94.0917 113.061 98.5208 111.058C98.9209 110.864 99.321 110.665 99.7156 110.455C101.183 109.675 102.405 108.906 103.695 107.849C104.456 107.196 105.051 106.604 105.667 105.808C106.323 104.917 106.723 104.17 107.029 103.108C107.974 99.3461 108.535 95.551 108.235 91.6618C108.101 90.4889 107.801 84.4035 105.306 86.0466C102.894 87.839 102.539 91.7282 101.688 94.71C101.055 96.84 100.41 98.9643 99.7434 101.078C99.76 100.95 99.6544 101.161 99.5878 101.249C99.3266 101.57 99.0487 101.841 98.7431 102.112C97.5872 103.119 96.3646 103.894 95.0419 104.663C93.0802 105.802 91.1575 106.721 89.0735 107.622C87.0173 108.491 84.9611 109.293 82.8661 110.073C78.3536 111.7 73.78 113.226 69.2231 114.726C66.8891 115.489 64.4272 116.374 62.3544 117.713C62.0043 118.006 61.9376 118.466 62.032 118.88ZM63.6548 118.626H63.6659C63.6603 118.62 63.6548 118.62 63.6548 118.626Z" fill="#858584"/>
<path fill-rule="evenodd" clip-rule="evenodd" d="M31.8063 96.5356C38.4027 98.4885 45.0992 98.7595 51.9346 98.494C60.4427 97.985 68.0005 96.6683 76.253 94.6214C77.7534 94.2342 79.2372 93.8303 80.721 93.4043C88.6011 91.0752 97.4038 87.9661 104.517 83.8501C104.545 83.8335 109.852 80.658 108.124 80.6691C106.579 80.7742 101.505 83.308 100.049 83.9331C91.9021 87.3189 84.1831 90.085 75.675 92.497C73.2576 93.1609 70.868 93.7584 68.4173 94.3116C60.7039 96.0211 52.4847 97.2105 44.5546 97.2382C40.7312 97.2492 36.7189 97.0777 32.94 96.4526C32.8177 96.4305 31.3617 96.1815 31.8063 96.5356ZM35.5297 97.2824L35.5463 97.288C35.5408 97.288 35.5352 97.288 35.5297 97.2824Z" fill="#C4C4C4"/>
<path fill-rule="evenodd" clip-rule="evenodd" d="M125.279 68.3212C124.423 68.3986 123.273 68.8301 122.484 69.151C121.155 69.7098 119.866 70.3238 118.582 70.9766C118.36 71.0928 118.138 71.2035 117.916 71.3252C117.032 71.8065 116.143 72.3486 115.381 73.0014C115.098 73.2227 114.798 73.4772 114.553 73.7428C114.203 74.1522 113.72 74.639 114.342 74.9433C115.026 75.2863 115.526 74.7939 116.282 74.39L116.31 74.3734C117.465 73.8589 118.438 73.1674 119.499 72.4814C119.855 72.2546 120.211 72.0333 120.566 71.8175C121.744 71.1039 122.923 70.4124 124.079 69.6544C124.584 69.3114 124.873 69.0625 125.284 68.6254C125.362 68.5259 125.357 68.4207 125.279 68.3212ZM124.895 68.5093C124.895 68.5148 124.895 68.5148 124.895 68.5093V68.5093Z" fill="#858584"/>
<path fill-rule="evenodd" clip-rule="evenodd" d="M66.7832 91.7226C71.4457 90.8374 76.0526 89.8803 80.6651 88.7683C86.1612 87.3964 92.0074 85.8307 97.1534 83.4463C102.605 80.8296 105.35 79.535 105.645 78.6499C106.201 76.9847 99.0706 77.4992 92.1296 78.4175C92.0518 78.4286 86.3057 79.1644 87.8784 79.6401C89.5344 80.0551 100.032 79.5018 99.7597 80.0717C99.3429 80.9292 94.2136 82.8931 90.6792 84.2208C85.7333 86.0409 80.5206 87.4904 75.4302 88.9011C72.7516 89.6424 70.1119 90.4391 67.4556 91.2689C67.3278 91.3132 66.3886 91.623 66.7832 91.7226ZM69.3673 91.0808C69.3728 91.0808 69.3784 91.0808 69.3784 91.0753L69.3673 91.0808Z" fill="#B1D7F5"/>
<path fill-rule="evenodd" clip-rule="evenodd" d="M103.028 69.7319C103.45 69.0017 103.822 68.2825 104.106 67.4858C104.389 66.6394 104.573 65.7155 104.584 64.8248C104.595 64.0558 104.423 62.9715 104.128 62.2689C104.122 62.2523 104.05 62.0808 104.05 62.0808C104 62.1361 103.961 61.9038 103.956 61.8761C103.934 61.7987 103.917 61.7268 103.878 61.6548C103.739 61.3782 103.656 61.4557 103.494 61.594C103.45 61.6327 103.4 61.6548 103.344 61.6825C103.278 61.7157 103.239 61.7378 103.189 61.7931C103.094 61.9204 103.055 62.0532 103.05 62.2136C103.039 62.2247 103.011 62.9272 103.011 62.9936C102.989 64.0448 103.167 64.8525 103.189 65.8593C103.189 66.5564 103.111 67.3199 103.011 68.0114C102.939 68.5093 102.922 69.0017 102.872 69.5051C102.872 69.6047 102.889 69.7485 103.028 69.7319Z" fill="white"/>
<path fill-rule="evenodd" clip-rule="evenodd" d="M32.4507 89.1832C31.606 89.1168 30.8002 89.0062 29.9833 88.7849C29.1219 88.5359 28.2606 88.1542 27.5159 87.6563C26.8712 87.2248 26.0766 86.4724 25.6653 85.8252C25.6542 85.8086 25.5542 85.6537 25.5542 85.6537C25.632 85.6481 25.4597 85.4766 25.443 85.46C25.3875 85.3992 25.343 85.3438 25.3041 85.2719C25.1596 85.0008 25.2652 84.9732 25.4708 84.9234C25.5264 84.9068 25.5764 84.8791 25.632 84.8515C25.6987 84.8127 25.7376 84.7962 25.8098 84.7906C25.971 84.7851 26.1043 84.8293 26.2377 84.9123C26.2544 84.9123 26.849 85.2885 26.9046 85.3217C27.7882 85.9026 28.3495 86.5111 29.1719 87.1031C29.7443 87.5014 30.4223 87.8721 31.0503 88.1874C31.506 88.4142 31.9172 88.6798 32.3618 88.9232C32.4396 88.9841 32.5452 89.0781 32.4507 89.1832ZM31.9283 89.0283C31.9283 89.0283 31.9228 89.0283 31.9283 89.0283V89.0283Z" fill="white"/>
<path fill-rule="evenodd" clip-rule="evenodd" d="M58.3865 92.1485C55.9024 92.3753 53.7518 92.4971 51.251 92.4196C51.201 92.4141 51.151 92.4085 51.0954 92.403C49.7117 92.3366 47.9611 92.4417 46.5718 92.5026C45.8049 92.5524 45.038 92.5856 44.2823 92.7073C44.0989 92.7405 43.9099 92.7681 43.7265 92.8069C43.432 92.8456 43.0652 92.8898 42.7762 92.9728C42.6873 92.9894 42.5817 93.006 42.5039 93.0558C42.4762 93.0669 42.4539 93.0779 42.4317 93.1056C42.4206 93.1222 42.3539 93.2992 42.365 93.3269C42.365 93.349 42.4039 93.4043 42.4206 93.4209L42.4373 93.4375C42.5151 93.5592 42.5984 93.6256 42.7207 93.6975C42.9708 93.9022 43.3931 93.9576 43.7043 94.0018C44.31 94.118 44.9602 94.1678 45.5771 94.2176C45.9161 94.2452 46.2551 94.2618 46.5941 94.2784C48.0945 94.3227 49.7506 94.3338 51.2455 94.2231C52.2513 94.2065 53.2238 94.1512 54.2241 94.0627C56.3581 93.869 58.3142 93.4818 60.3926 93.0282C63.3546 92.3809 65.4719 91.4183 65.1274 91.291C64.6328 91.114 60.4816 91.966 58.3865 92.1485Z" fill="#5DABE2"/>
<path fill-rule="evenodd" clip-rule="evenodd" d="M75.3636 63.5801C76.3195 62.717 77.4309 61.9314 78.4757 61.1791C80.254 59.9011 82.0878 58.7559 83.944 57.5997C85.3055 56.7477 87.1338 55.6247 88.3175 54.5791C88.6176 54.2969 89.5456 53.6165 89.001 53.2846C88.2786 52.9084 87.3783 53.4726 86.717 53.7659C84.5997 54.734 82.5547 56.3052 80.6985 57.6937C79.2203 58.8002 77.7588 59.962 76.5084 61.3229C75.9582 61.9259 75.5637 62.5123 75.2525 63.2592C75.2024 63.392 75.1969 63.5413 75.3636 63.5801Z" fill="#DE995C"/>
<path fill-rule="evenodd" clip-rule="evenodd" d="M63.6825 54.5238C64.0882 54.1366 64.505 53.7659 64.9107 53.3842C65.4553 52.8697 65.9721 52.4492 66.5389 51.9735C66.9168 51.6581 67.5225 51.0606 67.6893 50.6015C67.8226 50.2419 67.9727 49.9321 67.6059 49.6665C67.1558 49.3346 66.9502 49.4563 66.4222 49.6831C65.6164 50.0538 65.1218 50.7951 64.5995 51.4756C64.166 52.0454 63.8326 52.5599 63.588 53.2348C63.4491 53.6165 63.4491 53.9208 63.4713 54.3136C63.488 54.4298 63.5714 54.4962 63.6825 54.5238Z" fill="white"/>
<path fill-rule="evenodd" clip-rule="evenodd" d="M59.1979 65.9092C58.82 66.7944 58.3643 67.4416 57.7363 68.1719C57.2028 68.7694 56.6916 69.2175 56.0581 69.6988C55.7802 69.9035 55.5079 70.0971 55.2245 70.2963C54.4465 70.855 53.5017 71.5466 52.9071 72.2879C52.657 72.6309 52.1347 73.1841 52.6348 73.4607C53.2405 73.7539 53.6907 73.4386 54.302 73.1564C55.5357 72.5534 56.2637 71.8785 57.2306 70.9159C57.314 70.8329 57.3918 70.7499 57.4752 70.6669C58.2643 69.8426 58.8645 69.0073 59.2423 67.9285C59.4591 67.3144 59.4813 66.7778 59.4368 66.136C59.4202 65.9977 59.3535 65.876 59.1979 65.9092Z" fill="#AA1214"/>
<path fill-rule="evenodd" clip-rule="evenodd" d="M82.9548 78.6553C82.8159 79.1809 82.488 79.6069 82.1268 79.9996C82.0045 80.1214 81.8767 80.232 81.7489 80.3426C81.3877 80.6469 81.0598 80.8571 80.6375 81.0674C80.2262 81.2555 79.9039 81.3606 79.4649 81.4546C79.2815 81.4933 79.0981 81.5265 78.9147 81.5542C78.4146 81.6261 77.9533 81.6317 77.4698 81.6814C77.3253 81.698 77.192 81.7091 77.0475 81.7146L76.9808 81.6925C76.6585 81.7589 76.4695 81.8032 76.4973 82.1738C76.5196 82.3951 76.5251 82.5057 76.6807 82.6828C76.6807 82.6828 76.6474 82.6717 76.6307 82.6662C76.8974 82.9594 77.2698 83.1364 77.631 83.2803C78.2034 83.4794 78.6369 83.5126 79.2315 83.4241C80.015 83.2803 80.6097 82.9926 81.2821 82.5666C81.3766 82.5058 81.471 82.4394 81.5655 82.373C82.249 81.8474 82.7103 81.3716 83.0826 80.5971C83.1215 80.5141 83.1604 80.4367 83.1938 80.3537C83.4105 79.8337 83.4438 79.3081 83.2493 78.777C83.1827 78.6553 83.0826 78.6166 82.9548 78.6553ZM82.9493 79.0536C82.9493 79.0592 82.9493 79.0592 82.9493 79.0536V79.0536Z" fill="#D37719"/>
<path fill-rule="evenodd" clip-rule="evenodd" d="M41.0865 67.1981C41.0643 67.4747 41.0032 67.696 40.8587 67.9394C40.792 68.0556 40.7309 68.1275 40.642 68.2215C40.6031 68.2603 40.5697 68.2879 40.5253 68.3211C40.2418 68.5258 39.964 68.6033 39.6361 68.6973C39.625 68.7028 39.575 68.7139 39.5583 68.7194C39.2582 68.8135 38.9081 68.9684 38.6691 69.1676C38.5802 69.245 38.5135 69.2893 38.4413 69.3888C38.3968 69.4552 38.3524 69.5161 38.319 69.5825C38.0023 69.9531 38.0856 70.0251 38.3579 70.2795C38.4913 70.4234 38.5358 70.5727 38.7247 70.6336C38.8748 70.7166 39.0581 70.7166 39.2249 70.7166H39.236C39.7584 70.7498 40.1196 70.5451 40.5475 70.2685C40.7475 70.1302 40.9254 69.9919 41.1088 69.8314C41.3922 69.5714 41.5811 69.3446 41.7478 68.9961C41.8923 68.6586 41.9312 68.4096 41.9034 68.0445C41.9034 68.039 41.9034 68.0279 41.9034 68.0224C41.8256 67.6407 41.6756 67.447 41.3922 67.1981C41.2866 67.1206 41.181 67.1428 41.0865 67.1981Z" fill="#D37719"/>
<path fill-rule="evenodd" clip-rule="evenodd" d="M75.6806 77.914C75.7639 77.7259 75.864 77.6097 76.0251 77.4825C76.1696 77.3774 76.303 77.3165 76.4697 77.2502C76.4975 77.2391 76.5253 77.2336 76.5531 77.2225C76.892 77.1118 77.1921 77.0731 77.5478 77.0621C77.6756 77.0565 77.8034 77.0621 77.9313 77.0621C78.1424 77.0621 78.3758 77.051 78.5814 77.0123C78.7371 76.9846 78.8426 76.9625 78.976 76.874C78.976 76.874 78.9816 76.874 78.9816 76.8684C79.2205 76.7246 79.4984 76.5863 79.6262 76.3207C79.7985 75.9445 79.7207 75.7896 79.3817 75.5352C79.2705 75.4522 79.1705 75.3913 79.0483 75.3305C78.9149 75.2696 78.8037 75.2309 78.6648 75.1977C78.0869 75.076 77.5867 75.2309 77.0421 75.4245C76.9587 75.4577 76.8754 75.4909 76.792 75.5241C76.3308 75.7233 75.9584 75.939 75.6361 76.3318C75.5305 76.4646 75.4527 76.5863 75.3749 76.7356C75.3194 76.8574 75.286 76.9625 75.2638 77.0952C75.2304 77.3829 75.2693 77.5655 75.3972 77.8144C75.4694 77.9638 75.6806 77.914 75.6806 77.914Z" fill="#FFEC00"/>
<path fill-rule="evenodd" clip-rule="evenodd" d="M36.8579 67.0708C37.1247 66.9546 37.3747 66.8717 37.647 66.7776C37.8471 66.7112 38.0249 66.667 38.2305 66.6338C38.3584 66.6172 38.4695 66.6116 38.5973 66.6061C38.8141 66.5951 39.1086 66.5508 39.292 66.4291C39.3253 66.407 39.3642 66.3793 39.4031 66.3572C39.3531 66.3406 39.3086 66.324 39.2753 66.2852C39.2697 66.2797 39.2586 66.2631 39.2642 66.2521C39.2753 66.2355 39.2975 66.2355 39.3142 66.2355C39.5254 66.241 39.5365 66.2189 39.6532 66.0474C39.7032 65.9754 39.7588 65.9091 39.781 65.8205C39.7866 65.7873 39.7866 65.7597 39.7755 65.7265C39.7643 65.7044 39.7532 65.6878 39.7366 65.6712C39.6921 65.6324 39.6476 65.6103 39.5921 65.5937C39.492 65.4886 39.3642 65.4278 39.2308 65.3724C38.7251 65.1677 38.2305 65.378 37.7749 65.6103C37.7749 65.6103 37.7693 65.6158 37.7637 65.6158C37.3858 65.8205 37.158 65.981 36.9079 66.3295C36.7801 66.5121 36.7523 66.6891 36.7412 66.9049C36.7412 66.9823 36.7968 67.0321 36.8579 67.0708Z" fill="#FFEC00"/>
<path fill-rule="evenodd" clip-rule="evenodd" d="M53.0905 69.7872C53.4961 69.2948 53.924 68.819 54.3075 68.3045C54.4631 68.0888 54.6076 67.873 54.7521 67.6517C55.0855 67.1317 55.3522 66.6504 55.6134 66.0916C55.8524 65.555 56.1136 64.9077 56.3248 64.36C56.4359 64.0724 56.8805 63.3255 56.447 63.3145C55.8913 63.3421 55.5301 63.8179 55.18 64.2217C54.5075 65.0184 54.5242 65.555 54.1741 66.4568C54.0741 66.7057 53.974 66.9381 53.8573 67.1815C53.6406 67.6241 53.4795 67.9892 53.3072 68.4428C53.1683 68.8135 53.1016 69.1897 52.996 69.5659C52.9737 69.6544 52.9682 69.7816 53.0905 69.7872ZM53.3072 69.3833C53.3072 69.3833 53.3072 69.3778 53.3072 69.3833V69.3833Z" fill="#CF634D"/>
<path fill-rule="evenodd" clip-rule="evenodd" d="M85.8445 74.8547C86.3058 74.9986 86.6837 75.1369 87.1727 75.2088C87.3506 75.2309 87.5062 75.2364 87.684 75.2309C88.1063 75.2088 88.412 75.1258 88.7732 74.9101C88.901 74.8326 89.0066 74.7551 89.1177 74.6556C89.3734 74.4177 89.5234 74.1632 89.6568 73.8423C89.7735 73.5325 89.8291 73.2448 89.7513 72.9184C89.6679 72.6363 89.5846 72.3044 89.24 72.4205C88.8732 72.5588 88.8899 72.6861 88.6787 73.0236C88.612 73.1231 88.5509 73.2227 88.4842 73.3278C88.3509 73.5547 88.2286 73.787 88.0397 73.9696C88.023 73.9972 87.8952 74.0802 87.8618 74.0968C87.734 74.1687 87.6229 74.2074 87.4784 74.2462C87.4228 74.2794 86.7948 74.379 86.6837 74.3955C86.3892 74.4398 86.1669 74.5283 85.9001 74.6556C85.8445 74.7054 85.8279 74.7773 85.8445 74.8547Z" fill="#AFB0B0"/>
<path fill-rule="evenodd" clip-rule="evenodd" d="M84.4109 71.6681C84.4276 71.6349 84.4498 71.6127 84.4776 71.5851C84.4887 71.574 84.5665 71.5242 84.5776 71.5187C84.6721 71.4744 84.7665 71.4412 84.8666 71.4081C84.9221 71.3915 84.9722 71.3804 85.0277 71.3638C85.2333 71.3029 85.439 71.2421 85.6501 71.1923C85.7502 71.1646 85.8558 71.148 85.9558 71.1204C86.0947 71.0817 86.2837 71.0042 86.4004 70.9212C86.5004 70.8604 86.5838 70.7995 86.6449 70.6999C86.7282 70.545 86.7505 70.3182 86.7227 70.1467C86.656 69.8037 86.5115 69.776 86.1614 69.7705C86.0892 69.7705 86.028 69.776 85.9558 69.7871C85.6279 69.8203 85.3612 70.025 85.0889 70.1965C85.0666 70.2076 85.0389 70.2297 85.0166 70.2408C84.7499 70.4178 84.5331 70.5727 84.3553 70.8438C84.3386 70.8604 84.3109 70.9102 84.2942 70.9323C84.2275 71.0429 84.1942 71.1425 84.183 71.2697C84.1719 71.3527 84.1719 71.4136 84.1886 71.491C84.1886 71.5242 84.2108 71.5796 84.2219 71.6072C84.2608 71.7068 84.4109 71.6681 84.4109 71.6681Z" fill="white"/>
<path fill-rule="evenodd" clip-rule="evenodd" d="M128.824 61.7434C131.792 61.2565 143.551 56.3826 147.902 54.8944C148.241 54.7783 149.753 54.5017 149.408 54.1421C148.763 53.6054 147.096 54.0701 146.39 54.214C141.539 55.2817 135.621 57.9814 131.253 60.2552C130.475 60.659 129.724 61.0961 128.952 61.4999C128.891 61.5387 128.702 61.6493 128.824 61.7434ZM129.519 61.4944C129.524 61.4944 129.524 61.4944 129.519 61.4944V61.4944Z" fill="#E8BA94"/>
<path fill-rule="evenodd" clip-rule="evenodd" d="M30.2281 73.245C28.3554 72.1109 26.4214 71.0321 24.5042 69.9755C19.3638 67.1595 11.3725 62.5567 5.76526 60.8749C5.64855 60.8417 3.0311 60.1336 3.58126 60.8196C3.65907 60.9026 25.3656 71.3696 26.5437 71.9228C27.6552 72.4428 28.7444 72.902 29.9058 73.3003C29.9558 73.3169 30.2837 73.4221 30.2281 73.245Z" fill="#DE995C"/>
<path fill-rule="evenodd" clip-rule="evenodd" d="M54.1406 91.2912C53.1736 91.1363 52.2511 90.7933 51.3509 90.4116C50.4395 90.0077 49.6837 89.5873 48.8612 89.023C48.4611 88.7353 48.0999 88.4476 47.7276 88.1267C47.3052 87.7561 46.9329 87.3965 46.5494 86.9871C46.1382 86.5279 45.8214 86.1019 45.4547 85.6096C45.249 85.3219 44.8823 84.4976 44.6155 84.824C44.2321 85.3827 44.6489 86.2015 44.8878 86.7381C45.0934 87.1475 45.2991 87.4629 45.5825 87.8169C46.366 88.7519 47.2274 89.3604 48.2666 89.9911C48.3222 90.0243 48.3833 90.0575 48.4444 90.0962C49.6115 90.7712 50.8841 91.2912 52.2178 91.518C52.8346 91.6231 53.3848 91.6176 53.9906 91.4903C54.085 91.4571 54.2017 91.4018 54.1406 91.2912Z" fill="#AA6E4C"/>
</svg>
