<svg width="12" height="12" viewBox="0 0 12 12" fill="none" xmlns="http://www.w3.org/2000/svg">
<path d="M6.59325 9.71005L9.23765 11.389C9.57869 11.6042 9.99844 11.2841 9.89875 10.8906L9.13271 7.87891C9.112 7.79543 9.11529 7.7078 9.14221 7.62611C9.16913 7.54442 9.21858 7.472 9.28487 7.41719L11.6564 5.43913C11.966 5.18204 11.8086 4.6626 11.4046 4.63637L8.30896 4.43699C8.22449 4.43208 8.14329 4.40266 8.07527 4.35235C8.00725 4.30203 7.95536 4.23299 7.92594 4.15366L6.77164 1.24692C6.74108 1.16292 6.68542 1.09035 6.6122 1.03908C6.53899 0.987802 6.45177 0.960297 6.36238 0.960297C6.273 0.960297 6.18578 0.987802 6.11256 1.03908C6.03935 1.09035 5.98369 1.16292 5.95313 1.24692L4.79883 4.15366C4.76941 4.23299 4.71752 4.30203 4.6495 4.35235C4.58148 4.40266 4.50028 4.43208 4.41581 4.43699L1.32018 4.63637C0.916175 4.6626 0.75877 5.18204 1.06833 5.43913L3.4399 7.41719C3.50619 7.472 3.55564 7.54442 3.58256 7.62611C3.60948 7.7078 3.61277 7.79543 3.59206 7.87891L2.88374 10.6702C2.76306 11.1424 3.26675 11.5255 3.67076 11.2684L6.13152 9.71005C6.20053 9.66617 6.28061 9.64287 6.36238 9.64287C6.44416 9.64287 6.52424 9.66617 6.59325 9.71005Z" fill="#C63A2F"/>
</svg>
