<svg width="28" height="22" viewBox="0 0 28 22" fill="none" xmlns="http://www.w3.org/2000/svg">
<path d="M8.72727 14.7188C9.54545 14.7188 10.3371 14.8164 11.1023 15.0117C11.8674 15.207 12.6212 15.5 13.3636 15.8906V5.88281C12.6818 5.41406 11.9432 5.05078 11.1477 4.79297C10.3523 4.53516 9.54545 4.40625 8.72727 4.40625C8.15152 4.40625 7.58712 4.48047 7.03409 4.62891C6.48106 4.77734 5.92424 4.96094 5.36364 5.17969V15.3516C5.83333 15.1328 6.36742 14.9727 6.96591 14.8711C7.56439 14.7695 8.15152 14.7188 8.72727 14.7188ZM14.7273 15.8906C15.4848 15.5 16.2273 15.207 16.9545 15.0117C17.6818 14.8164 18.4545 14.7188 19.2727 14.7188C19.8485 14.7188 20.4432 14.7656 21.0568 14.8594C21.6705 14.9531 22.197 15.0781 22.6364 15.2344V5.17969C22.1212 4.91406 21.5758 4.71875 21 4.59375C20.4242 4.46875 19.8485 4.40625 19.2727 4.40625C18.4545 4.40625 17.6629 4.53516 16.8977 4.79297C16.1326 5.05078 15.4091 5.41406 14.7273 5.88281V15.8906ZM14.0455 18C13.2727 17.4062 12.4318 16.9492 11.5227 16.6289C10.6136 16.3086 9.68182 16.1484 8.72727 16.1484C8.16667 16.1484 7.62121 16.2188 7.09091 16.3594C6.56061 16.5 6.0303 16.6719 5.5 16.875C5.15152 17.0469 4.81439 17.0234 4.48864 16.8047C4.16288 16.5859 4 16.2734 4 15.8672V5.01562C4 4.78125 4.05303 4.56641 4.15909 4.37109C4.26515 4.17578 4.42424 4.02344 4.63636 3.91406C5.27273 3.60156 5.93561 3.37109 6.625 3.22266C7.31439 3.07422 8.01515 3 8.72727 3C9.68182 3 10.6098 3.13281 11.5114 3.39844C12.4129 3.66406 13.2576 4.07031 14.0455 4.61719C14.8182 4.07031 15.6477 3.66406 16.5341 3.39844C17.4205 3.13281 18.3333 3 19.2727 3C19.9848 3 20.6818 3.07422 21.3636 3.22266C22.0455 3.37109 22.7045 3.60156 23.3409 3.91406C23.553 4.02344 23.7159 4.17578 23.8295 4.37109C23.9432 4.56641 24 4.78125 24 5.01562V15.8672C24 16.3047 23.8295 16.6367 23.4886 16.8633C23.1477 17.0898 22.8106 17.0937 22.4773 16.875C21.9621 16.6562 21.4394 16.4805 20.9091 16.3477C20.3788 16.2148 19.8333 16.1484 19.2727 16.1484C18.3182 16.1484 17.4015 16.3125 16.5227 16.6406C15.6439 16.9687 14.8182 17.4219 14.0455 18Z" fill="white"/>
</svg>
