<svg width="5" height="5" viewBox="0 0 5 5" fill="none" xmlns="http://www.w3.org/2000/svg">
<g clip-path="url(#clip0_1879_96)">
<path d="M1.29831 1.34421C1.03269 1.6199 0.870078 1.97862 0.837801 2.36008C0.805524 2.74154 0.905551 3.12249 1.12107 3.43888C1.33659 3.75528 1.65446 3.98784 2.02125 4.09747C2.38804 4.2071 2.78139 4.18711 3.13518 4.04088C3.15914 3.88463 3.10664 3.73463 3.08518 3.68213C3.03727 3.56546 2.87935 3.36609 2.61581 3.08963C2.54539 3.01567 2.54997 2.9588 2.57518 2.79025L2.57789 2.7713C2.59497 2.65588 2.62372 2.58755 3.01227 2.52588C3.20977 2.49463 3.26164 2.57338 3.33352 2.68275L3.35768 2.71859C3.42602 2.81859 3.47664 2.8415 3.5531 2.87609C3.58747 2.89171 3.63018 2.9115 3.68747 2.9438C3.82331 3.0215 3.82331 3.10921 3.82331 3.3013V3.32317C3.82331 3.40463 3.81539 3.4763 3.80289 3.53859C3.96276 3.33795 4.07416 3.10311 4.12843 2.85238C4.1827 2.60164 4.17836 2.34176 4.11577 2.09297C4.05317 1.84418 3.934 1.61319 3.76754 1.41799C3.60107 1.22279 3.3918 1.06864 3.15602 0.967546C3.04081 1.04525 2.88268 1.15546 2.82747 1.23109C2.79935 1.26963 2.75935 1.46692 2.62956 1.48317C2.59581 1.48734 2.55018 1.48442 2.50185 1.4813C2.37227 1.47296 2.19518 1.4615 2.13852 1.61546C2.10247 1.71296 2.09622 1.97796 2.21268 2.11546C2.23143 2.13734 2.23497 2.17796 2.22227 2.22359C2.2056 2.28338 2.17206 2.31984 2.16143 2.32734C2.14143 2.31567 2.10143 2.26921 2.07414 2.23775C2.00893 2.16171 1.92727 2.06692 1.82185 2.03775C1.78352 2.02713 1.74143 2.01838 1.70039 2.00963C1.58602 1.98567 1.45664 1.95838 1.42643 1.89421C1.40435 1.84713 1.40456 1.78234 1.40456 1.714C1.40456 1.62713 1.40456 1.529 1.36206 1.4338C1.34728 1.39982 1.32557 1.3693 1.29831 1.34421ZM2.49935 4.58317C1.34872 4.58317 0.416016 3.65046 0.416016 2.49984C0.416016 1.34921 1.34872 0.416504 2.49935 0.416504C3.64997 0.416504 4.58268 1.34921 4.58268 2.49984C4.58268 3.65046 3.64997 4.58317 2.49935 4.58317Z" fill="#333333"/>
</g>
<defs>
<clipPath id="clip0_1879_96">
<rect width="5" height="5" fill="white"/>
</clipPath>
</defs>
</svg>
