<svg width="5" height="5" viewBox="0 0 5 5" fill="none" xmlns="http://www.w3.org/2000/svg">
<path d="M0.3125 2.5C0.3125 3.08016 0.542968 3.63656 0.953204 4.0468C1.36344 4.45703 1.91984 4.6875 2.5 4.6875C3.08016 4.6875 3.63656 4.45703 4.0468 4.0468C4.45703 3.63656 4.6875 3.08016 4.6875 2.5C4.6875 1.91984 4.45703 1.36344 4.0468 0.953204C3.63656 0.542968 3.08016 0.3125 2.5 0.3125C1.91984 0.3125 1.36344 0.542968 0.953204 0.953204C0.542968 1.36344 0.3125 1.91984 0.3125 2.5ZM5 2.5C5 3.16304 4.73661 3.79893 4.26777 4.26777C3.79893 4.73661 3.16304 5 2.5 5C1.83696 5 1.20107 4.73661 0.732233 4.26777C0.263392 3.79893 0 3.16304 0 2.5C0 1.83696 0.263392 1.20107 0.732233 0.732233C1.20107 0.263392 1.83696 0 2.5 0C3.16304 0 3.79893 0.263392 4.26777 0.732233C4.73661 1.20107 5 1.83696 5 2.5ZM2.54562 1.56C2.16687 1.56 1.94344 1.8475 1.94344 2.34188V2.67313C1.94344 3.16406 2.16313 3.4425 2.54562 3.4425C2.85156 3.4425 3.05844 3.25937 3.08594 2.99937H3.49062V3.02844C3.45937 3.48094 3.0675 3.79938 2.54375 3.79938C1.89031 3.79938 1.52219 3.38188 1.52219 2.67344V2.33812C1.52219 1.63156 1.8975 1.20125 2.54406 1.20125C3.06938 1.20125 3.46125 1.53062 3.49062 2.005V2.0325H3.08594C3.05844 1.75781 2.84594 1.56 2.54562 1.56Z" fill="#333333"/>
</svg>
