<svg width="5" height="5" viewBox="0 0 5 5" fill="none" xmlns="http://www.w3.org/2000/svg">
<g clip-path="url(#clip0_1879_101)">
<path d="M2.49927 0C1.68172 0 1.01172 0.668 1.01172 1.4833C1.01172 1.7992 1.11262 2.0928 1.28337 2.3341L2.31772 4.12225C2.46257 4.3115 2.55887 4.27555 2.67932 4.11225L3.82022 2.17075C3.84322 2.12905 3.86132 2.08465 3.87707 2.0393C3.94947 1.86287 3.9867 1.674 3.98667 1.4833C3.98672 0.668 3.31692 0 2.49927 0ZM2.49927 0.695C2.93957 0.695 3.28967 1.0443 3.28967 1.4833C3.28967 1.9223 2.93957 2.27145 2.49927 2.27145C2.05902 2.27145 1.70877 1.92235 1.70877 1.4833C1.70877 1.0443 2.05902 0.69505 2.49927 0.69505V0.695Z" fill="#333333"/>
<path d="M3.44565 2.44531L3.44325 2.45161C3.444 2.44971 3.4446 2.44776 3.44535 2.44586L3.44565 2.44531ZM1.7003 3.45276C0.994 3.55256 0.5 3.79131 0.5 4.14276C0.5 4.61616 1.3254 4.99991 2.5 4.99991C3.6746 4.99991 4.5 4.61616 4.5 4.14276C4.5 3.79131 4.00605 3.55256 3.2998 3.45276L3.20195 3.61936C3.73425 3.69321 4.1 3.84841 4.1 4.02851C4.1 4.28101 3.38365 4.48566 2.5 4.48566C1.61635 4.48566 0.9 4.28101 0.9 4.02851C0.89995 3.84901 1.2633 3.69396 1.79725 3.61981C1.765 3.56411 1.73255 3.50851 1.70025 3.45276H1.7003Z" fill="#333333"/>
</g>
<defs>
<clipPath id="clip0_1879_101">
<rect width="5" height="5" fill="white"/>
</clipPath>
</defs>
</svg>
