<svg width="30" height="24" viewBox="0 0 30 24" fill="none" xmlns="http://www.w3.org/2000/svg">
<path d="M11.7194 21C11.2347 21 10.8227 20.8335 10.4834 20.5006C10.1441 20.1677 9.97449 19.7635 9.97449 19.2879C9.97449 18.8123 10.1441 18.408 10.4834 18.0751C10.8227 17.7422 11.2347 17.5757 11.7194 17.5757C12.2041 17.5757 12.6161 17.7422 12.9554 18.0751C13.2946 18.408 13.4643 18.8123 13.4643 19.2879C13.4643 19.7635 13.2946 20.1677 12.9554 20.5006C12.6161 20.8335 12.2041 21 11.7194 21ZM21.4133 21C20.9286 21 20.5166 20.8335 20.1773 20.5006C19.838 20.1677 19.6684 19.7635 19.6684 19.2879C19.6684 18.8123 19.838 18.408 20.1773 18.0751C20.5166 17.7422 20.9286 17.5757 21.4133 17.5757C21.898 17.5757 22.3099 17.7422 22.6492 18.0751C22.9885 18.408 23.1582 18.8123 23.1582 19.2879C23.1582 19.7635 22.9885 20.1677 22.6492 20.5006C22.3099 20.8335 21.898 21 21.4133 21ZM10.4592 5.30538L13.125 10.7272H20.1046L23.1339 5.30538H10.4592ZM9.73214 3.8786H24.0064C24.378 3.8786 24.6607 4.04506 24.8546 4.37797C25.0485 4.71089 25.0485 5.0438 24.8546 5.37672L21.5829 11.1552C21.4052 11.4564 21.175 11.6982 20.8922 11.8805C20.6095 12.0628 20.2985 12.1539 19.9592 12.1539H12.6161L11.2589 14.627H23.1582V16.0538H11.477C10.7985 16.0538 10.3097 15.8319 10.0108 15.388C9.71195 14.9441 9.71599 14.4447 10.023 13.8899L11.574 11.0839L7.89031 3.42678H6V2H8.83546L9.73214 3.8786Z" fill="#C10016"/>
</svg>
