<svg width="18" height="17" viewBox="0 0 18 17" fill="none" xmlns="http://www.w3.org/2000/svg">
<path d="M4.67613 4.57096C3.71991 5.50829 3.1345 6.72794 3.01831 8.02491C2.90211 9.32187 3.26221 10.6171 4.03807 11.6928C4.81394 12.7686 5.95826 13.5593 7.27871 13.932C8.59916 14.3048 10.0152 14.2368 11.2889 13.7396C11.3751 13.2084 11.1861 12.6984 11.1089 12.5199C10.9364 12.1232 10.3679 11.4453 9.41913 10.5054C9.16563 10.2539 9.18213 10.0605 9.27288 9.4875L9.28263 9.42304C9.34413 9.03062 9.44763 8.79829 10.8464 8.58862C11.5574 8.48237 11.7441 8.75012 12.0029 9.122L12.0899 9.24383C12.3359 9.58383 12.5181 9.66175 12.7934 9.77933C12.9171 9.83246 13.0709 9.89975 13.2771 10.0095C13.7661 10.2737 13.7661 10.572 13.7661 11.225V11.2994C13.7661 11.5764 13.7376 11.82 13.6926 12.0318C14.2681 11.3496 14.6692 10.5512 14.8646 9.69872C15.0599 8.84621 15.0443 7.96261 14.819 7.11673C14.5936 6.27084 14.1646 5.48549 13.5654 4.8218C12.9661 4.15812 12.2127 3.63401 11.3639 3.29029C10.9491 3.5545 10.3799 3.92921 10.1811 4.18633C10.0799 4.31737 9.93588 4.98816 9.46863 5.04341C9.34713 5.05758 9.18288 5.04766 9.00888 5.03704C8.54238 5.00871 7.90488 4.96975 7.70088 5.49321C7.57113 5.82471 7.54863 6.72571 7.96788 7.19321C8.03538 7.26758 8.04813 7.40571 8.00238 7.56083C7.94238 7.76412 7.82163 7.88808 7.78338 7.91358C7.71138 7.87391 7.56738 7.71596 7.46913 7.609C7.23438 7.35046 6.94038 7.02816 6.56088 6.929C6.42288 6.89287 6.27138 6.86312 6.12363 6.83337C5.71188 6.75191 5.24613 6.65912 5.13738 6.44096C5.05788 6.28087 5.05863 6.06058 5.05863 5.82825C5.05863 5.53287 5.05863 5.19925 4.90563 4.87554C4.85244 4.76002 4.77427 4.65627 4.67613 4.57096ZM8.99988 15.5834C4.85763 15.5834 1.49988 12.4122 1.49988 8.50008C1.49988 4.58796 4.85763 1.41675 8.99988 1.41675C13.1421 1.41675 16.4999 4.58796 16.4999 8.50008C16.4999 12.4122 13.1421 15.5834 8.99988 15.5834Z" fill="white"/>
</svg>
