<svg width="22" height="22" viewBox="0 0 22 22" fill="none" xmlns="http://www.w3.org/2000/svg">
<g clip-path="url(#clip0_1216_578)">
<rect x="-267" y="-158" width="1441" height="617" fill="#D9D9D9"/>
<path d="M1.65 19.6838C1.21 19.6838 0.825 19.521 0.495 19.1954C0.165 18.8697 0 18.4898 0 18.0556V3.94372C0 3.50951 0.165 3.12957 0.495 2.80392C0.825 2.47826 1.21 2.31543 1.65 2.31543H20.35C20.79 2.31543 21.175 2.47826 21.505 2.80392C21.835 3.12957 22 3.50951 22 3.94372V18.0556C22 18.4898 21.835 18.8697 21.505 19.1954C21.175 19.521 20.79 19.6838 20.35 19.6838H1.65ZM11 11.4881L20.35 5.43632V3.94372L11 9.85984L1.65 3.94372V5.43632L11 11.4881Z" fill="#C10016"/>
</g>
<defs>
<clipPath id="clip0_1216_578">
<rect width="22" height="22" fill="white"/>
</clipPath>
</defs>
</svg>
