<svg width="14" height="13" viewBox="0 0 14 13" fill="none" xmlns="http://www.w3.org/2000/svg">
<g clip-path="url(#clip0_1125_2386)">
<path d="M7.00022 0C4.71108 0 2.83508 1.7368 2.83508 3.85658C2.83508 4.67792 3.1176 5.44128 3.5957 6.06866L6.49188 10.7179C6.89746 11.2099 7.1671 11.1164 7.50436 10.6919L10.6989 5.64395C10.7633 5.53553 10.814 5.42009 10.8581 5.30218C11.0608 4.84347 11.165 4.35241 11.1649 3.85658C11.1651 1.7368 9.28964 0 7.00022 0ZM7.00022 1.807C8.23306 1.807 9.21334 2.71518 9.21334 3.85658C9.21334 4.99798 8.23306 5.90577 7.00022 5.90577C5.76752 5.90577 4.78682 4.99811 4.78682 3.85658C4.78682 2.71518 5.76752 1.80713 7.00022 1.80713V1.807Z" fill="white"/>
<path d="M9.64781 6.35791L9.64109 6.37429C9.64319 6.36935 9.64487 6.36428 9.64697 6.35934L9.64781 6.35791V6.35791ZM4.76083 8.97728C2.78319 9.23676 1.39999 9.85751 1.39999 10.7713C1.39999 12.0021 3.71111 12.9999 6.99999 12.9999C10.2889 12.9999 12.6 12.0021 12.6 10.7713C12.6 9.85751 11.2169 9.23676 9.23943 8.97728L8.96545 9.41044C10.4559 9.60245 11.48 10.006 11.48 10.4742C11.48 11.1307 9.47421 11.6628 6.99999 11.6628C4.52577 11.6628 2.51999 11.1307 2.51999 10.4742C2.51985 10.0075 3.53723 9.6044 5.03229 9.41161C4.94199 9.26679 4.85113 9.12223 4.76069 8.97728H4.76083Z" fill="white"/>
</g>
<defs>
<clipPath id="clip0_1125_2386">
<rect width="14" height="13" fill="white"/>
</clipPath>
</defs>
</svg>
