<svg width="21" height="21" viewBox="0 0 21 21" fill="none" xmlns="http://www.w3.org/2000/svg">
<path d="M5.39286 20C5.02143 20 4.69643 19.8773 4.41786 19.6318C4.13929 19.3864 4 19.1 4 18.7727V3.22727C4 2.9 4.13929 2.61364 4.41786 2.36818C4.69643 2.12273 5.02143 2 5.39286 2H15.6071C15.9786 2 16.3036 2.12273 16.5821 2.36818C16.8607 2.61364 17 2.9 17 3.22727V18.7727C17 19.1 16.8607 19.3864 16.5821 19.6318C16.3036 19.8773 15.9786 20 15.6071 20H5.39286ZM10.5 18.4659C10.7012 18.4659 10.8676 18.408 10.9991 18.292C11.1307 18.1761 11.1964 18.0295 11.1964 17.8523C11.1964 17.675 11.1307 17.5284 10.9991 17.4125C10.8676 17.2966 10.7012 17.2386 10.5 17.2386C10.2988 17.2386 10.1324 17.2966 10.0009 17.4125C9.86935 17.5284 9.80357 17.675 9.80357 17.8523C9.80357 18.0295 9.86935 18.1761 10.0009 18.292C10.1324 18.408 10.2988 18.4659 10.5 18.4659ZM5.39286 15.7045H15.6071V5.06818H5.39286V15.7045Z" fill="#C10016"/>
</svg>
