<svg width="22" height="22" viewBox="0 0 22 22" fill="none" xmlns="http://www.w3.org/2000/svg">
<path d="M3.94396 22C3.49166 22 3.1072 21.8472 2.79059 21.5417C2.47398 21.2361 2.31567 20.8651 2.31567 20.4286V9.0619C2.31567 8.6254 2.47398 8.25437 2.79059 7.94881C3.1072 7.64325 3.49166 7.49048 3.94396 7.49048H5.84363V4.97619C5.84363 3.59683 6.34569 2.42262 7.3498 1.45357C8.35391 0.484524 9.57061 0 10.9999 0C12.4292 0 13.6459 0.484524 14.65 1.45357C15.6541 2.42262 16.1561 3.59683 16.1561 4.97619V7.49048H18.0558C18.5081 7.49048 18.8926 7.64325 19.2092 7.94881C19.5258 8.25437 19.6841 8.6254 19.6841 9.0619V20.4286C19.6841 20.8651 19.5258 21.2361 19.2092 21.5417C18.8926 21.8472 18.5081 22 18.0558 22H3.94396ZM10.9999 16.7619C11.5788 16.7619 12.0718 16.5698 12.4789 16.1857C12.886 15.8016 13.0895 15.3389 13.0895 14.7976C13.0895 14.2738 12.886 13.798 12.4789 13.3702C12.0718 12.9425 11.5788 12.7286 10.9999 12.7286C10.4209 12.7286 9.92793 12.9425 9.52085 13.3702C9.11378 13.798 8.91025 14.2738 8.91025 14.7976C8.91025 15.3389 9.11378 15.8016 9.52085 16.1857C9.92793 16.5698 10.4209 16.7619 10.9999 16.7619ZM7.47192 7.49048H14.5278V4.97619C14.5278 4.03333 14.1841 3.23016 13.4966 2.56667C12.8091 1.90317 11.9769 1.57143 10.9999 1.57143C10.0229 1.57143 9.19067 1.90317 8.50317 2.56667C7.81567 3.23016 7.47192 4.03333 7.47192 4.97619V7.49048Z" fill="#C10016"/>
</svg>
