<svg width="21" height="21" viewBox="0 0 21 21" fill="none" xmlns="http://www.w3.org/2000/svg">
<path d="M3.45253 21C3.00076 21 2.61676 20.8542 2.30053 20.5625C1.98429 20.2708 1.82617 19.9167 1.82617 19.5V8.65C1.82617 8.23333 1.98429 7.87917 2.30053 7.5875C2.61676 7.29583 3.00076 7.15 3.45253 7.15H5.34995V4.75C5.34995 3.43333 5.85141 2.3125 6.85433 1.3875C7.85725 0.4625 9.0725 0 10.5001 0C11.9277 0 13.1429 0.4625 14.1458 1.3875C15.1488 2.3125 15.6502 3.43333 15.6502 4.75V7.15H17.5476C17.9994 7.15 18.3834 7.29583 18.6996 7.5875C19.0159 7.87917 19.174 8.23333 19.174 8.65V19.5C19.174 19.9167 19.0159 20.2708 18.6996 20.5625C18.3834 20.8542 17.9994 21 17.5476 21H3.45253ZM10.5001 16C11.0783 16 11.5708 15.8167 11.9774 15.45C12.384 15.0833 12.5872 14.6417 12.5872 14.125C12.5872 13.625 12.384 13.1708 11.9774 12.7625C11.5708 12.3542 11.0783 12.15 10.5001 12.15C9.92182 12.15 9.4294 12.3542 9.02281 12.7625C8.61622 13.1708 8.41292 13.625 8.41292 14.125C8.41292 14.6417 8.61622 15.0833 9.02281 15.45C9.4294 15.8167 9.92182 16 10.5001 16ZM6.97631 7.15H14.0239V4.75C14.0239 3.85 13.6805 3.08333 12.9938 2.45C12.3072 1.81667 11.4759 1.5 10.5001 1.5C9.52427 1.5 8.69302 1.81667 8.00633 2.45C7.31965 3.08333 6.97631 3.85 6.97631 4.75V7.15Z" fill="#C10016"/>
</svg>
