<svg width="55" height="55" viewBox="0 0 55 55" fill="none" xmlns="http://www.w3.org/2000/svg">
<path d="M38.25 13.75C38.25 19.69 33.44 24.5 27.5 24.5C21.56 24.5 16.75 19.69 16.75 13.75C16.75 7.80998 21.56 3 27.5 3C33.44 3 38.25 7.80998 38.25 13.75ZM3 48.125C3 46.9409 3.56934 45.6818 5.04088 44.3236C6.53281 42.9466 8.74304 41.6799 11.4238 40.6059C16.7902 38.4562 23.286 37.375 27.5 37.375C31.714 37.375 38.2098 38.4562 43.5762 40.6059C46.257 41.6799 48.4672 42.9466 49.9591 44.3236C51.4307 45.6818 52 46.9409 52 48.125V52H3V48.125Z" fill="none" stroke="white" stroke-width="6"/>
</svg>
