<svg width="21" height="21" viewBox="0 0 21 21" fill="none" xmlns="http://www.w3.org/2000/svg">
<path d="M10.5 10.6957C9.19375 10.6957 8.125 10.2899 7.29375 9.47826C6.4625 8.66667 6.04688 7.62319 6.04688 6.34783C6.04688 5.07246 6.4625 4.02899 7.29375 3.21739C8.125 2.4058 9.19375 2 10.5 2C11.8062 2 12.875 2.4058 13.7063 3.21739C14.5375 4.02899 14.9531 5.07246 14.9531 6.34783C14.9531 7.62319 14.5375 8.66667 13.7063 9.47826C12.875 10.2899 11.8062 10.6957 10.5 10.6957ZM1 20V17.2754C1 16.5411 1.18802 15.913 1.56406 15.3913C1.9401 14.8696 2.425 14.4734 3.01875 14.2029C4.34479 13.6232 5.61641 13.1884 6.83359 12.8986C8.05078 12.6087 9.27292 12.4638 10.5 12.4638C11.7271 12.4638 12.9443 12.6135 14.1516 12.913C15.3589 13.2126 16.6255 13.6425 17.9516 14.2029C18.5651 14.4734 19.0599 14.8696 19.4359 15.3913C19.812 15.913 20 16.5411 20 17.2754V20H1Z" fill="#C10016"/>
</svg>
