<svg width="15" height="14" viewBox="0 0 15 14" fill="none" xmlns="http://www.w3.org/2000/svg">
<path d="M7.77006 10.0057L10.4145 11.6847C10.7555 11.8998 11.1753 11.5798 11.0756 11.1862L10.3095 8.17456C10.2888 8.09109 10.2921 8.00345 10.319 7.92176C10.346 7.84007 10.3954 7.76765 10.4617 7.71284L12.8333 5.73479C13.1428 5.47769 12.9854 4.95826 12.5814 4.93202L9.48578 4.73264C9.40131 4.72773 9.32011 4.69832 9.25209 4.648C9.18407 4.59769 9.13218 4.52864 9.10276 4.44932L7.94846 1.54257C7.9179 1.45857 7.86224 1.38601 7.78902 1.33473C7.71581 1.28346 7.62859 1.25595 7.5392 1.25595C7.44982 1.25595 7.3626 1.28346 7.28938 1.33473C7.21617 1.38601 7.16051 1.45857 7.12995 1.54257L5.97565 4.44932C5.94623 4.52864 5.89434 4.59769 5.82632 4.648C5.7583 4.69832 5.67709 4.72773 5.59263 4.73264L2.497 4.93202C2.09299 4.95826 1.93559 5.47769 2.24515 5.73479L4.61672 7.71284C4.683 7.76765 4.73246 7.84007 4.75938 7.92176C4.7863 8.00345 4.78959 8.09109 4.76888 8.17456L4.06056 10.9659C3.93988 11.4381 4.44357 11.8211 4.84758 11.564L7.30834 10.0057C7.37735 9.96183 7.45743 9.93853 7.5392 9.93853C7.62098 9.93853 7.70106 9.96183 7.77006 10.0057Z" fill="#C63A2F"/>
<path d="M10.6507 12.1726C10.4886 12.1719 10.3301 12.1246 10.1942 12.0362L7.54453 10.3625H7.53403L5.07327 11.9208C4.91431 12.0211 4.72903 12.0717 4.54116 12.0661C4.35328 12.0604 4.17136 11.9989 4.01866 11.8893C3.86189 11.774 3.74316 11.6145 3.67772 11.4313C3.61227 11.2481 3.6031 11.0494 3.65138 10.8609L4.3597 8.07487C4.36193 8.06758 4.36213 8.05982 4.36028 8.05242C4.35843 8.04503 4.3546 8.03828 4.34921 8.03289L1.97764 6.06008C1.8425 5.94716 1.74428 5.79634 1.69565 5.62707C1.64702 5.4578 1.65021 5.27785 1.70481 5.11041C1.75734 4.94512 1.85859 4.79957 1.99529 4.69283C2.13199 4.58609 2.29775 4.52316 2.47084 4.51227L5.56647 4.31289C5.57104 4.31234 5.57539 4.31059 5.57907 4.30783C5.58276 4.30507 5.58565 4.30138 5.58746 4.29715L6.74176 1.38516C6.80407 1.22427 6.91358 1.08599 7.05591 0.988472C7.19825 0.890959 7.36675 0.838776 7.53928 0.838776C7.71181 0.838776 7.88031 0.890959 8.02264 0.988472C8.16498 1.08599 8.27449 1.22427 8.3368 1.38516L9.4911 4.29715C9.49291 4.30138 9.4958 4.30507 9.49949 4.30783C9.50317 4.31059 9.50752 4.31234 9.51209 4.31289L12.6077 4.51227C12.7808 4.52316 12.9466 4.58609 13.0833 4.69283C13.22 4.79957 13.3212 4.94512 13.3738 5.11041C13.4284 5.27785 13.4315 5.4578 13.3829 5.62707C13.3343 5.79634 13.2361 5.94716 13.1009 6.06008L10.7294 8.03289C10.724 8.03828 10.7201 8.04503 10.7183 8.05242C10.7164 8.05982 10.7166 8.06758 10.7189 8.07487L11.4796 11.0813C11.5248 11.2514 11.5174 11.4311 11.4584 11.5969C11.3994 11.7627 11.2916 11.9067 11.1491 12.01C11.0033 12.1135 10.8295 12.1702 10.6507 12.1726ZM7.53928 9.52299C7.70089 9.52186 7.85939 9.56741 7.99575 9.65416L10.6402 11.3279H10.6507C10.6574 11.3244 10.6629 11.3189 10.6664 11.3122C10.6716 11.3069 10.6716 11.3017 10.6664 11.2807L9.9056 8.27425C9.86432 8.11397 9.86901 7.9453 9.91911 7.78756C9.96922 7.62982 10.0627 7.48937 10.1889 7.38229L12.5657 5.40948C12.571 5.40423 12.5815 5.39374 12.571 5.3675C12.5605 5.34127 12.5605 5.34652 12.5552 5.34652L9.45437 5.14714C9.29208 5.13543 9.13644 5.07795 9.0055 4.98137C8.87455 4.88479 8.77368 4.75306 8.71457 4.60146L7.55502 1.69472C7.54977 1.67898 7.54453 1.67898 7.53928 1.67898C7.53403 1.67898 7.52879 1.67898 7.52354 1.69472L6.36399 4.60671C6.30488 4.75831 6.20401 4.89004 6.07306 4.98662C5.94212 5.0832 5.78648 5.14068 5.62419 5.15238L2.52331 5.35176C2.51806 5.35176 2.51282 5.35176 2.50757 5.37275C2.50232 5.39374 2.50757 5.40948 2.51282 5.41472L4.88963 7.38753C5.01583 7.49461 5.10934 7.63506 5.15945 7.79281C5.20955 7.95055 5.21424 8.11921 5.17296 8.27949L4.46464 11.0708C4.4583 11.0957 4.4594 11.1218 4.46779 11.1461C4.47619 11.1703 4.49151 11.1916 4.51186 11.2072C4.52649 11.2213 4.54571 11.2295 4.56597 11.2305C4.58622 11.2315 4.60614 11.2251 4.62204 11.2125L7.08281 9.65416C7.21917 9.56741 7.37767 9.52186 7.53928 9.52299Z" fill="#C63A2F"/>
</svg>
