<svg width="14" height="14" viewBox="0 0 14 14" fill="none" xmlns="http://www.w3.org/2000/svg">
<g clip-path="url(#clip0_937_17)">
<path opacity="0.2" d="M7.49766 10.0057L10.1421 11.6847C10.4831 11.8998 10.9029 11.5798 10.8032 11.1862L10.0371 8.17457C10.0164 8.09109 10.0197 8.00345 10.0466 7.92176C10.0735 7.84007 10.123 7.76765 10.1893 7.71284L12.5609 5.73479C12.8704 5.47769 12.713 4.95826 12.309 4.93202L9.21338 4.73264C9.12891 4.72773 9.04771 4.69832 8.97969 4.648C8.91167 4.59769 8.85978 4.52864 8.83036 4.44932L7.67606 1.54257C7.6455 1.45857 7.58984 1.38601 7.51662 1.33473C7.44341 1.28346 7.35619 1.25595 7.2668 1.25595C7.17742 1.25595 7.0902 1.28346 7.01698 1.33473C6.94377 1.38601 6.88811 1.45857 6.85755 1.54257L5.70325 4.44932C5.67383 4.52864 5.62194 4.59769 5.55392 4.648C5.4859 4.69832 5.40469 4.72773 5.32023 4.73264L2.2246 4.93202C1.82059 4.95826 1.66319 5.47769 1.97275 5.73479L4.34432 7.71284C4.4106 7.76765 4.46006 7.84007 4.48698 7.92176C4.5139 8.00345 4.51719 8.09109 4.49648 8.17457L3.78816 10.9659C3.66748 11.4381 4.17117 11.8211 4.57518 11.564L7.03594 10.0057C7.10495 9.96183 7.18503 9.93853 7.2668 9.93853C7.34858 9.93853 7.42866 9.96183 7.49766 10.0057Z" fill="#C63A2F"/>
<path d="M10.3783 12.1726C10.2162 12.1719 10.0577 12.1246 9.92178 12.0362L7.27213 10.3625H7.26163L4.80087 11.9208C4.64191 12.0211 4.45663 12.0717 4.26876 12.0661C4.08088 12.0604 3.89896 11.9989 3.74626 11.8893C3.58949 11.774 3.47076 11.6145 3.40532 11.4313C3.33987 11.2481 3.3307 11.0494 3.37898 10.8609L4.0873 8.07487C4.08953 8.06758 4.08973 8.05982 4.08788 8.05242C4.08603 8.04503 4.0822 8.03828 4.07681 8.03289L1.70524 6.06008C1.5701 5.94716 1.47188 5.79634 1.42325 5.62707C1.37462 5.4578 1.37781 5.27785 1.43241 5.11041C1.48494 4.94512 1.58619 4.79957 1.72289 4.69283C1.85959 4.58609 2.02535 4.52316 2.19844 4.51227L5.29407 4.31289C5.29864 4.31234 5.30299 4.31059 5.30667 4.30783C5.31036 4.30507 5.31325 4.30138 5.31506 4.29715L6.46936 1.38516C6.53167 1.22427 6.64118 1.08599 6.78351 0.988472C6.92585 0.890959 7.09435 0.838776 7.26688 0.838776C7.43941 0.838776 7.60791 0.890959 7.75025 0.988472C7.89258 1.08599 8.00209 1.22427 8.0644 1.38516L9.2187 4.29715C9.22051 4.30138 9.2234 4.30507 9.22709 4.30783C9.23077 4.31059 9.23512 4.31234 9.23969 4.31289L12.3353 4.51227C12.5084 4.52316 12.6742 4.58609 12.8109 4.69283C12.9476 4.79957 13.0488 4.94512 13.1014 5.11041C13.156 5.27785 13.1591 5.4578 13.1105 5.62707C13.0619 5.79634 12.9637 5.94716 12.8285 6.06008L10.457 8.03289C10.4516 8.03828 10.4477 8.04503 10.4459 8.05242C10.444 8.05982 10.4442 8.06758 10.4465 8.07487L11.2072 11.0813C11.2524 11.2514 11.245 11.4311 11.186 11.5969C11.127 11.7627 11.0192 11.9067 10.8767 12.01C10.7309 12.1135 10.5571 12.1702 10.3783 12.1726ZM7.26688 9.52299C7.42849 9.52186 7.58699 9.56741 7.72335 9.65416L10.3678 11.3279H10.3783C10.385 11.3244 10.3905 11.3189 10.394 11.3122C10.3992 11.3069 10.3992 11.3017 10.394 11.2807L9.6332 8.27425C9.59192 8.11397 9.59661 7.9453 9.64671 7.78756C9.69682 7.62982 9.79033 7.48937 9.91653 7.38229L12.2933 5.40948C12.2986 5.40423 12.3091 5.39374 12.2986 5.3675C12.2881 5.34127 12.2881 5.34652 12.2828 5.34652L9.18197 5.14714C9.01968 5.13543 8.86404 5.07795 8.7331 4.98137C8.60215 4.88479 8.50128 4.75306 8.44217 4.60146L7.28262 1.69472C7.27737 1.67898 7.27213 1.67898 7.26688 1.67898C7.26163 1.67898 7.25639 1.67898 7.25114 1.69472L6.09159 4.60671C6.03248 4.75831 5.93161 4.89004 5.80066 4.98662C5.66972 5.0832 5.51408 5.14068 5.35179 5.15238L2.25091 5.35176C2.24566 5.35176 2.24042 5.35176 2.23517 5.37275C2.22992 5.39374 2.23517 5.40948 2.24042 5.41472L4.61723 7.38753C4.74343 7.49461 4.83694 7.63506 4.88705 7.79281C4.93715 7.95055 4.94184 8.11921 4.90056 8.27949L4.19224 11.0708C4.1859 11.0957 4.187 11.1218 4.19539 11.1461C4.20379 11.1703 4.21911 11.1916 4.23946 11.2072C4.25409 11.2213 4.27331 11.2295 4.29357 11.2305C4.31382 11.2315 4.33374 11.2251 4.34964 11.2125L6.81041 9.65416C6.94677 9.56741 7.10527 9.52186 7.26688 9.52299Z" fill="#C63A2F"/>
</g>
<defs>
<clipPath id="clip0_937_17">
<rect width="13.4319" height="13.4319" fill="white" transform="translate(0.550842)"/>
</clipPath>
</defs>
</svg>
