<svg width="100" height="100" viewBox="0 0 100 100" fill="none" xmlns="http://www.w3.org/2000/svg">
<path d="M50 11.875C57.25 11.875 63.125 17.75 63.125 25C63.125 32.25 57.25 38.125 50 38.125C42.75 38.125 36.875 32.25 36.875 25C36.875 17.75 42.75 11.875 50 11.875ZM50 68.125C68.5625 68.125 88.125 77.25 88.125 81.25V88.125H11.875V81.25C11.875 77.25 31.4375 68.125 50 68.125ZM50 0C36.1875 0 25 11.1875 25 25C25 38.8125 36.1875 50 50 50C63.8125 50 75 38.8125 75 25C75 11.1875 63.8125 0 50 0ZM50 56.25C33.3125 56.25 0 64.625 0 81.25V100H100V81.25C100 64.625 66.6875 56.25 50 56.25Z" fill="#C10016"/>
</svg>
